<svg width="127" height="25" viewBox="0 0 127 25" fill="none" xmlns="http://www.w3.org/2000/svg">
<path d="M0.517045 19V1.54545H7.50568C8.78977 1.54545 9.8608 1.7358 10.7188 2.11648C11.5767 2.49716 12.2216 3.02557 12.6534 3.7017C13.0852 4.37216 13.3011 5.14489 13.3011 6.01989C13.3011 6.7017 13.1648 7.30114 12.892 7.81818C12.6193 8.32955 12.2443 8.75 11.767 9.07955C11.2955 9.40341 10.7557 9.63352 10.1477 9.76989V9.94034C10.8125 9.96875 11.4347 10.1562 12.0142 10.5028C12.5994 10.8494 13.0739 11.3352 13.4375 11.9602C13.8011 12.5795 13.983 13.3182 13.983 14.1761C13.983 15.1023 13.7528 15.929 13.2926 16.6562C12.8381 17.3778 12.1648 17.9489 11.2727 18.3693C10.3807 18.7898 9.28125 19 7.97443 19H0.517045ZM4.20739 15.983H7.21591C8.24432 15.983 8.99432 15.7869 9.46591 15.3949C9.9375 14.9972 10.1733 14.4687 10.1733 13.8097C10.1733 13.3267 10.0568 12.9006 9.82386 12.5312C9.59091 12.1619 9.25852 11.8722 8.8267 11.6619C8.40057 11.4517 7.89205 11.3466 7.30114 11.3466H4.20739V15.983ZM4.20739 8.84943H6.94318C7.44886 8.84943 7.89773 8.76136 8.28977 8.58523C8.6875 8.40341 9 8.14773 9.22727 7.81818C9.46023 7.48864 9.5767 7.09375 9.5767 6.63352C9.5767 6.00284 9.35227 5.49432 8.90341 5.10795C8.46023 4.72159 7.82955 4.52841 7.01136 4.52841H4.20739V8.84943ZM17.0361 19V5.90909H20.6667V19H17.0361ZM18.8599 4.22159C18.3201 4.22159 17.8571 4.04261 17.4707 3.68466C17.09 3.32102 16.8997 2.88636 16.8997 2.38068C16.8997 1.88068 17.09 1.4517 17.4707 1.09375C17.8571 0.730113 18.3201 0.548295 18.8599 0.548295C19.3997 0.548295 19.8599 0.730113 20.2406 1.09375C20.627 1.4517 20.8201 1.88068 20.8201 2.38068C20.8201 2.88636 20.627 3.32102 20.2406 3.68466C19.8599 4.04261 19.3997 4.22159 18.8599 4.22159ZM30.1928 24.1818C29.0167 24.1818 28.0082 24.0199 27.1673 23.696C26.332 23.3778 25.6673 22.9432 25.173 22.392C24.6786 21.8409 24.3576 21.2216 24.2099 20.5341L27.5678 20.0824C27.6701 20.3438 27.832 20.5881 28.0536 20.8153C28.2752 21.0426 28.5678 21.2244 28.9315 21.3608C29.3008 21.5028 29.7497 21.5739 30.2781 21.5739C31.0678 21.5739 31.7184 21.3807 32.2298 20.9943C32.7468 20.6136 33.0053 19.9744 33.0053 19.0767V16.6818H32.8519C32.6928 17.0455 32.4542 17.3892 32.136 17.7131C31.8178 18.0369 31.4088 18.3011 30.9088 18.5057C30.4088 18.7102 29.8122 18.8125 29.119 18.8125C28.136 18.8125 27.2411 18.5852 26.4343 18.1307C25.6332 17.6705 24.994 16.9687 24.5167 16.0256C24.0451 15.0767 23.8093 13.8778 23.8093 12.429C23.8093 10.946 24.0508 9.70739 24.5338 8.71307C25.0167 7.71875 25.6588 6.97443 26.4599 6.48011C27.2667 5.9858 28.1502 5.73864 29.1105 5.73864C29.8434 5.73864 30.457 5.86364 30.9514 6.11364C31.4457 6.35795 31.8434 6.66477 32.1445 7.03409C32.4514 7.39773 32.6872 7.75568 32.8519 8.10795H32.9883V5.90909H36.5934V19.1278C36.5934 20.2415 36.3207 21.1733 35.7752 21.9233C35.2298 22.6733 34.4741 23.2358 33.5082 23.6108C32.548 23.9915 31.4428 24.1818 30.1928 24.1818ZM30.2695 16.0852C30.8548 16.0852 31.3491 15.9403 31.7525 15.6506C32.1616 15.3551 32.4741 14.9347 32.69 14.3892C32.9116 13.8381 33.0224 13.179 33.0224 12.4119C33.0224 11.6449 32.9144 10.9801 32.6985 10.4176C32.4826 9.84943 32.1701 9.40909 31.761 9.09659C31.3519 8.78409 30.8548 8.62784 30.2695 8.62784C29.673 8.62784 29.1701 8.78977 28.761 9.11364C28.3519 9.43182 28.0423 9.875 27.832 10.4432C27.6218 11.0114 27.5167 11.6676 27.5167 12.4119C27.5167 13.1676 27.6218 13.821 27.832 14.3722C28.048 14.9176 28.3576 15.3409 28.761 15.642C29.1701 15.9375 29.673 16.0852 30.2695 16.0852ZM52.733 19H46.5455V1.54545H52.7841C54.5398 1.54545 56.0512 1.89489 57.3182 2.59375C58.5853 3.28693 59.5597 4.28409 60.2415 5.58523C60.929 6.88636 61.2728 8.44318 61.2728 10.2557C61.2728 12.0739 60.929 13.6364 60.2415 14.9432C59.5597 16.25 58.5796 17.2528 57.3012 17.9517C56.0284 18.6506 54.5057 19 52.733 19ZM50.2358 15.8381H52.5796C53.6705 15.8381 54.5881 15.6449 55.3324 15.2585C56.0824 14.8665 56.6449 14.2614 57.0199 13.4432C57.4006 12.6193 57.5909 11.5568 57.5909 10.2557C57.5909 8.96591 57.4006 7.91193 57.0199 7.09375C56.6449 6.27557 56.0853 5.6733 55.3409 5.28693C54.5966 4.90057 53.679 4.70739 52.5881 4.70739H50.2358V15.8381ZM64.6582 19V5.90909H68.2889V19H64.6582ZM66.4821 4.22159C65.9423 4.22159 65.4793 4.04261 65.0929 3.68466C64.7122 3.32102 64.5219 2.88636 64.5219 2.38068C64.5219 1.88068 64.7122 1.4517 65.0929 1.09375C65.4793 0.730113 65.9423 0.548295 66.4821 0.548295C67.0219 0.548295 67.4821 0.730113 67.8628 1.09375C68.2491 1.4517 68.4423 1.88068 68.4423 2.38068C68.4423 2.88636 68.2491 3.32102 67.8628 3.68466C67.4821 4.04261 67.0219 4.22159 66.4821 4.22159ZM71.9173 23.9091V5.90909H75.4968V8.10795H75.6588C75.8179 7.75568 76.048 7.39773 76.3491 7.03409C76.6559 6.66477 77.0537 6.35795 77.5423 6.11364C78.0366 5.86364 78.6503 5.73864 79.3832 5.73864C80.3378 5.73864 81.2184 5.98864 82.0253 6.48864C82.8321 6.98295 83.477 7.73011 83.9599 8.73011C84.4429 9.72443 84.6843 10.9716 84.6843 12.4716C84.6843 13.9318 84.4486 15.1648 83.977 16.1705C83.5111 17.1705 82.8747 17.929 82.0679 18.446C81.2667 18.9574 80.369 19.2131 79.3747 19.2131C78.6701 19.2131 78.0707 19.0966 77.5764 18.8636C77.0878 18.6307 76.6872 18.3381 76.3747 17.9858C76.0622 17.6278 75.8236 17.267 75.6588 16.9034H75.548V23.9091H71.9173ZM75.4713 12.4545C75.4713 13.233 75.5792 13.9119 75.7951 14.4915C76.0111 15.071 76.3236 15.5227 76.7326 15.8466C77.1417 16.1648 77.6389 16.3239 78.2241 16.3239C78.815 16.3239 79.315 16.1619 79.7241 15.8381C80.1332 15.5085 80.4429 15.054 80.6531 14.4744C80.869 13.8892 80.977 13.2159 80.977 12.4545C80.977 11.6989 80.8718 11.0341 80.6616 10.4602C80.4514 9.88636 80.1417 9.4375 79.7326 9.11364C79.3236 8.78977 78.8207 8.62784 78.2241 8.62784C77.6332 8.62784 77.1332 8.78409 76.7241 9.09659C76.3207 9.40909 76.0111 9.85227 75.7951 10.4261C75.5792 11 75.4713 11.6761 75.4713 12.4545ZM87.8248 23.9091V5.90909H91.4043V8.10795H91.5663C91.7254 7.75568 91.9555 7.39773 92.2566 7.03409C92.5634 6.66477 92.9612 6.35795 93.4498 6.11364C93.9441 5.86364 94.5578 5.73864 95.2907 5.73864C96.2453 5.73864 97.1259 5.98864 97.9328 6.48864C98.7396 6.98295 99.3845 7.73011 99.8674 8.73011C100.35 9.72443 100.592 10.9716 100.592 12.4716C100.592 13.9318 100.356 15.1648 99.8845 16.1705C99.4186 17.1705 98.7822 17.929 97.9754 18.446C97.1742 18.9574 96.2765 19.2131 95.2822 19.2131C94.5776 19.2131 93.9782 19.0966 93.4839 18.8636C92.9953 18.6307 92.5947 18.3381 92.2822 17.9858C91.9697 17.6278 91.7311 17.267 91.5663 16.9034H91.4555V23.9091H87.8248ZM91.3788 12.4545C91.3788 13.233 91.4867 13.9119 91.7026 14.4915C91.9186 15.071 92.2311 15.5227 92.6401 15.8466C93.0492 16.1648 93.5464 16.3239 94.1316 16.3239C94.7225 16.3239 95.2225 16.1619 95.6316 15.8381C96.0407 15.5085 96.3504 15.054 96.5606 14.4744C96.7765 13.8892 96.8845 13.2159 96.8845 12.4545C96.8845 11.6989 96.7793 11.0341 96.5691 10.4602C96.3589 9.88636 96.0492 9.4375 95.6401 9.11364C95.2311 8.78977 94.7282 8.62784 94.1316 8.62784C93.5407 8.62784 93.0407 8.78409 92.6316 9.09659C92.2282 9.40909 91.9186 9.85227 91.7026 10.4261C91.4867 11 91.3788 11.6761 91.3788 12.4545ZM109.698 19.2557C108.352 19.2557 107.193 18.983 106.221 18.4375C105.255 17.8864 104.511 17.108 103.988 16.1023C103.465 15.0909 103.204 13.8949 103.204 12.5142C103.204 11.1676 103.465 9.9858 103.988 8.96875C104.511 7.9517 105.247 7.15909 106.195 6.59091C107.15 6.02273 108.269 5.73864 109.553 5.73864C110.417 5.73864 111.221 5.87784 111.965 6.15625C112.715 6.42898 113.369 6.84091 113.925 7.39205C114.488 7.94318 114.925 8.63636 115.238 9.47159C115.55 10.3011 115.707 11.2727 115.707 12.3864V13.3835H104.653V11.1335H112.289C112.289 10.6108 112.175 10.1477 111.948 9.74432C111.721 9.34091 111.406 9.02557 111.002 8.7983C110.604 8.56534 110.141 8.44886 109.613 8.44886C109.062 8.44886 108.573 8.5767 108.147 8.83239C107.727 9.08239 107.397 9.42045 107.158 9.84659C106.92 10.267 106.798 10.7358 106.792 11.2528V13.392C106.792 14.0398 106.911 14.5994 107.15 15.071C107.394 15.5426 107.738 15.9062 108.181 16.1619C108.624 16.4176 109.15 16.5455 109.758 16.5455C110.161 16.5455 110.531 16.4886 110.866 16.375C111.201 16.2614 111.488 16.0909 111.727 15.8636C111.965 15.6364 112.147 15.358 112.272 15.0284L115.63 15.25C115.46 16.0568 115.11 16.7614 114.582 17.3636C114.059 17.9602 113.383 18.4261 112.553 18.7614C111.729 19.0909 110.778 19.2557 109.698 19.2557ZM118.796 19V5.90909H122.316V8.19318H122.452C122.691 7.38068 123.092 6.76705 123.654 6.35227C124.217 5.93182 124.864 5.72159 125.597 5.72159C125.779 5.72159 125.975 5.73295 126.185 5.75568C126.395 5.77841 126.58 5.80966 126.739 5.84943V9.07102C126.569 9.01989 126.333 8.97443 126.032 8.93466C125.731 8.89489 125.455 8.875 125.205 8.875C124.671 8.875 124.194 8.99148 123.773 9.22443C123.359 9.4517 123.029 9.76989 122.785 10.179C122.546 10.5881 122.427 11.0597 122.427 11.5938V19H118.796Z" fill="black"/>
</svg>
